<?xml version="1.0" encoding="utf-8"?>
<svg fill="none" height="16" viewBox="0 0 16 16" width="16" xmlns="http://www.w3.org/2000/svg">
<path d="M12.9497 11.7124L9.23744 8.00008L12.9497 4.28777C13.2915 3.94606 13.2915 3.39204 12.9497 3.05033C12.608 2.70863 12.054 2.70863 11.7123 3.05033L8 6.76264L4.28769 3.05033C3.94598 2.70863 3.39196 2.70863 3.05025 3.05033C2.70855 3.39204 2.70855 3.94606 3.05025 4.28777L6.76256 8.00008L3.05025 11.7124C2.70855 12.0541 2.70855 12.6081 3.05025 12.9498C3.39196 13.2915 3.94598 13.2915 4.28769 12.9498L8 9.23752L11.7123 12.9498C12.054 13.2915 12.608 13.2915 12.9497 12.9498C13.2915 12.6081 13.2915 12.0541 12.9497 11.7124Z" fill="#42464F"/>
</svg>