<?xml version="1.0" encoding="utf-8"?>
<svg fill="none" height="16" viewBox="0 0 16 16" width="16" xmlns="http://www.w3.org/2000/svg">
<path d="M4.66667 0H2.66667C1.95942 0 1.28115 0.280952 0.781049 0.781049C0.280952 1.28115 0 1.95942 0 2.66667L0 4.66667C0 5.37391 0.280952 6.05219 0.781049 6.55229C1.28115 7.05238 1.95942 7.33333 2.66667 7.33333H4.66667C5.37391 7.33333 6.05219 7.05238 6.55229 6.55229C7.05238 6.05219 7.33333 5.37391 7.33333 4.66667V2.66667C7.33333 1.95942 7.05238 1.28115 6.55229 0.781049C6.05219 0.280952 5.37391 0 4.66667 0ZM6 4.66667C6 5.02029 5.85952 5.35943 5.60948 5.60948C5.35943 5.85952 5.02029 6 4.66667 6H2.66667C2.31304 6 1.97391 5.85952 1.72386 5.60948C1.47381 5.35943 1.33333 5.02029 1.33333 4.66667V2.66667C1.33333 2.31304 1.47381 1.97391 1.72386 1.72386C1.97391 1.47381 2.31304 1.33333 2.66667 1.33333H4.66667C5.02029 1.33333 5.35943 1.47381 5.60948 1.72386C5.85952 1.97391 6 2.31304 6 2.66667V4.66667Z" fill="#42464F"/>
<path d="M4.66667 8.66113H2.66667C1.95942 8.66113 1.28115 8.94208 0.781049 9.44218C0.280952 9.94228 0 10.6206 0 11.3278L0 13.3278C0 14.035 0.280952 14.7133 0.781049 15.2134C1.28115 15.7135 1.95942 15.9945 2.66667 15.9945H4.66667C5.37391 15.9945 6.05219 15.7135 6.55229 15.2134C7.05238 14.7133 7.33333 14.035 7.33333 13.3278V11.3278C7.33333 10.6206 7.05238 9.94228 6.55229 9.44218C6.05219 8.94208 5.37391 8.66113 4.66667 8.66113ZM6 13.3278C6 13.6814 5.85952 14.0206 5.60948 14.2706C5.35943 14.5207 5.02029 14.6611 4.66667 14.6611H2.66667C2.31304 14.6611 1.97391 14.5207 1.72386 14.2706C1.47381 14.0206 1.33333 13.6814 1.33333 13.3278V11.3278C1.33333 10.9742 1.47381 10.635 1.72386 10.385C1.97391 10.1349 2.31304 9.99447 2.66667 9.99447H4.66667C5.02029 9.99447 5.35943 10.1349 5.60948 10.385C5.85952 10.635 6 10.9742 6 11.3278V13.3278Z" fill="#42464F"/>
<path d="M13.3366 8.66113H11.3366C10.6293 8.66113 9.95107 8.94208 9.45097 9.44218C8.95087 9.94228 8.66992 10.6206 8.66992 11.3278V13.3278C8.66992 14.035 8.95087 14.7133 9.45097 15.2134C9.95107 15.7135 10.6293 15.9945 11.3366 15.9945H13.3366C14.0438 15.9945 14.7221 15.7135 15.2222 15.2134C15.7223 14.7133 16.0033 14.035 16.0033 13.3278V11.3278C16.0033 10.6206 15.7223 9.94228 15.2222 9.44218C14.7221 8.94208 14.0438 8.66113 13.3366 8.66113ZM14.6699 13.3278C14.6699 13.6814 14.5294 14.0206 14.2794 14.2706C14.0293 14.5207 13.6902 14.6611 13.3366 14.6611H11.3366C10.983 14.6611 10.6438 14.5207 10.3938 14.2706C10.1437 14.0206 10.0033 13.6814 10.0033 13.3278V11.3278C10.0033 10.9742 10.1437 10.635 10.3938 10.385C10.6438 10.1349 10.983 9.99447 11.3366 9.99447H13.3366C13.6902 9.99447 14.0293 10.1349 14.2794 10.385C14.5294 10.635 14.6699 10.9742 14.6699 11.3278V13.3278Z" fill="#42464F"/>
<path d="M9.33659 4.66113H11.3366V6.66113C11.3366 6.83794 11.4068 7.00751 11.5319 7.13254C11.6569 7.25756 11.8264 7.3278 12.0033 7.3278C12.1801 7.3278 12.3496 7.25756 12.4747 7.13254C12.5997 7.00751 12.6699 6.83794 12.6699 6.66113V4.66113H14.6699C14.8467 4.66113 15.0163 4.59089 15.1413 4.46587C15.2664 4.34085 15.3366 4.17128 15.3366 3.99447C15.3366 3.81766 15.2664 3.64809 15.1413 3.52306C15.0163 3.39804 14.8467 3.3278 14.6699 3.3278H12.6699V1.3278C12.6699 1.15099 12.5997 0.981419 12.4747 0.856395C12.3496 0.731371 12.1801 0.661133 12.0033 0.661133C11.8264 0.661133 11.6569 0.731371 11.5319 0.856395C11.4068 0.981419 11.3366 1.15099 11.3366 1.3278V3.3278H9.33659C9.15978 3.3278 8.99021 3.39804 8.86518 3.52306C8.74016 3.64809 8.66992 3.81766 8.66992 3.99447C8.66992 4.17128 8.74016 4.34085 8.86518 4.46587C8.99021 4.59089 9.15978 4.66113 9.33659 4.66113Z" fill="#42464F"/>
</svg>