<svg width="17" height="17" viewBox="0 0 17 17" fill="none" xmlns="http://www.w3.org/2000/svg">
<g id="file-exclamation 1" clip-path="url(#clip0_7252_64861)">
<path id="Vector" d="M8.28125 10.3151V7.98177C8.28125 7.61377 8.57992 7.3151 8.94792 7.3151C9.31592 7.3151 9.61458 7.61377 9.61458 7.98177V10.3151C9.61458 10.6831 9.31592 10.9818 8.94792 10.9818C8.57992 10.9818 8.28125 10.6831 8.28125 10.3151ZM8.94792 11.9818C8.39592 11.9818 7.94792 12.4298 7.94792 12.9818C7.94792 13.5338 8.39592 13.9818 8.94792 13.9818C9.49992 13.9818 9.94792 13.5338 9.94792 12.9818C9.94792 12.4298 9.49992 11.9818 8.94792 11.9818ZM15.6146 7.63844V13.3151C15.6146 15.1531 14.1193 16.6484 12.2812 16.6484H5.61458C3.77658 16.6484 2.28125 15.1531 2.28125 13.3151V3.98177C2.28125 2.14377 3.77658 0.648438 5.61458 0.648438H8.62458C9.87125 0.648438 11.0426 1.13377 11.9246 2.0151L14.2479 4.33844C15.1293 5.21977 15.6146 6.39177 15.6146 7.63844ZM10.9813 2.95777C10.7692 2.74577 10.5339 2.56644 10.2812 2.4211V5.3151C10.2812 5.68244 10.5806 5.98177 10.9479 5.98177H13.8419C13.6966 5.7291 13.5173 5.4931 13.3053 5.28177L10.9819 2.95844L10.9813 2.95777ZM14.2812 7.63844C14.2812 7.52977 14.2759 7.42177 14.2659 7.3151H10.9479C9.84525 7.3151 8.94792 6.41777 8.94792 5.3151V1.9971C8.84125 1.9871 8.73325 1.98177 8.62458 1.98177H5.61458C4.51192 1.98177 3.61458 2.8791 3.61458 3.98177V13.3151C3.61458 14.4178 4.51192 15.3151 5.61458 15.3151H12.2812C13.3839 15.3151 14.2812 14.4178 14.2812 13.3151V7.63844Z" fill="#41464F"/>
</g>
<defs>
<clipPath id="clip0_7252_64861">
<rect width="16" height="16" fill="white" transform="translate(0.948242 0.648438)"/>
</clipPath>
</defs>
</svg>
