<?xml version="1.0" encoding="utf-8"?>
<svg fill="none" height="16" viewBox="0 0 16 16" width="16" xmlns="http://www.w3.org/2000/svg">
<path d="M0.611367 7.07202L6.80337 10.7847C7.16569 11.0026 7.58054 11.1178 8.00337 11.1178C8.4262 11.1178 8.84104 11.0026 9.20337 10.7847L15.3954 7.07202C15.5791 6.96181 15.7312 6.80588 15.8368 6.61941C15.9424 6.43295 15.9979 6.22231 15.9979 6.00802C15.9979 5.79373 15.9424 5.5831 15.8368 5.39663C15.7312 5.21017 15.5791 5.05423 15.3954 4.94402L9.20337 1.22602C8.84111 1.00786 8.42624 0.892578 8.00337 0.892578C7.58049 0.892578 7.16562 1.00786 6.80337 1.22602L0.611367 4.93869C0.427591 5.0489 0.275494 5.20483 0.169893 5.3913C0.0642928 5.57776 0.00878906 5.7884 0.00878906 6.00269C0.00878906 6.21698 0.0642928 6.42762 0.169893 6.61408C0.275494 6.80054 0.427591 6.95648 0.611367 7.06669V7.07202ZM7.83203 2.93869C7.8838 2.90767 7.94302 2.89129 8.00337 2.89129C8.06372 2.89129 8.12293 2.90767 8.1747 2.93869L13.282 6.00536L8.1747 9.07202C8.12293 9.10304 8.06372 9.11943 8.00337 9.11943C7.94302 9.11943 7.8838 9.10304 7.83203 9.07202L2.7247 6.00536L7.83203 2.93869Z" fill="#42464F"/>
<path d="M8.85733 12.5554C8.59834 12.7108 8.30201 12.7928 8 12.7928C7.69799 12.7928 7.40166 12.7108 7.14267 12.5554L1.51467 9.17874C1.36293 9.08766 1.18974 9.03848 1.01278 9.03621C0.835818 9.03395 0.661427 9.07869 0.507413 9.16587C0.353398 9.25305 0.225277 9.37953 0.136131 9.53242C0.0469861 9.6853 1.00914e-05 9.8591 0 10.0361C9.84464e-06 10.2087 0.0447152 10.3784 0.129765 10.5287C0.214815 10.6789 0.337312 10.8046 0.485333 10.8934L6.11333 14.2681C6.68294 14.6109 7.33519 14.792 8 14.792C8.66481 14.792 9.31706 14.6109 9.88667 14.2681L15.5147 10.8914C15.6624 10.8027 15.7847 10.6774 15.8697 10.5275C15.9548 10.3777 15.9996 10.2084 16 10.0361C16 9.8591 15.953 9.6853 15.8639 9.53242C15.7747 9.37953 15.6466 9.25305 15.4926 9.16587C15.3386 9.07869 15.1642 9.03395 14.9872 9.03621C14.8103 9.03848 14.6371 9.08766 14.4853 9.17874L8.85733 12.5554Z" fill="#42464F"/>
</svg>