<?xml version="1.0" encoding="utf-8"?>
<svg fill="none" viewBox="0 0 16 16" xmlns="http://www.w3.org/2000/svg">
<path d="M7.99675 5.33887C7.46933 5.33887 6.95376 5.49526 6.51523 5.78828C6.07669 6.0813 5.7349 6.49777 5.53307 6.98504C5.33123 7.47231 5.27842 8.00849 5.38132 8.52577C5.48421 9.04306 5.73819 9.51821 6.11113 9.89115C6.48407 10.2641 6.95922 10.5181 7.47651 10.621C7.99379 10.7239 8.52997 10.671 9.01724 10.4692C9.50451 10.2674 9.92098 9.92559 10.214 9.48705C10.507 9.04852 10.6634 8.53295 10.6634 8.00553C10.6634 7.29829 10.3825 6.62001 9.88236 6.11992C9.38227 5.61982 8.70399 5.33887 7.99675 5.33887ZM7.99675 9.33887C7.73304 9.33887 7.47525 9.26067 7.25599 9.11416C7.03672 8.96765 6.86582 8.75941 6.76491 8.51578C6.66399 8.27214 6.63759 8.00405 6.68903 7.74541C6.74048 7.48677 6.86747 7.2492 7.05394 7.06273C7.24041 6.87626 7.47798 6.74927 7.73663 6.69782C7.99527 6.64637 8.26336 6.67278 8.50699 6.77369C8.75063 6.87461 8.95886 7.04551 9.10537 7.26477C9.25188 7.48404 9.33008 7.74183 9.33008 8.00553C9.33008 8.35916 9.1896 8.69829 8.93956 8.94834C8.68951 9.19839 8.35037 9.33887 7.99675 9.33887Z" fill="#42464F"/>
<path d="M14.1975 9.26667L13.9015 9.096C14.0348 8.37096 14.0348 7.62771 13.9015 6.90267L14.1975 6.732C14.4251 6.60068 14.6247 6.42581 14.7847 6.21737C14.9447 6.00894 15.0622 5.77103 15.1303 5.51721C15.1983 5.2634 15.2158 4.99866 15.1816 4.73811C15.1474 4.47755 15.0622 4.22629 14.9308 3.99867C14.7995 3.77104 14.6246 3.57151 14.4162 3.41147C14.2078 3.25143 13.9699 3.134 13.716 3.06591C13.4622 2.99781 13.1975 2.98037 12.9369 3.01459C12.6764 3.04881 12.4251 3.13401 12.1975 3.26533L11.9008 3.43667C11.3405 2.95795 10.6966 2.58683 10.0015 2.342V2C10.0015 1.46957 9.79078 0.960859 9.41571 0.585786C9.04064 0.210714 8.53193 0 8.00149 0C7.47106 0 6.96235 0.210714 6.58728 0.585786C6.21221 0.960859 6.00149 1.46957 6.00149 2V2.342C5.30642 2.58771 4.66273 2.95973 4.10283 3.43933L3.80483 3.26667C3.34512 3.00145 2.79888 2.92971 2.28628 3.06724C1.77368 3.20477 1.33671 3.54029 1.07149 4C0.806277 4.45971 0.734542 5.00595 0.872068 5.51855C1.00959 6.03114 1.34512 6.46812 1.80483 6.73333L2.10083 6.904C1.96757 7.62904 1.96757 8.37229 2.10083 9.09733L1.80483 9.268C1.34512 9.53322 1.00959 9.97019 0.872068 10.4828C0.734542 10.9954 0.806277 11.5416 1.07149 12.0013C1.33671 12.461 1.77368 12.7966 2.28628 12.9341C2.79888 13.0716 3.34512 12.9999 3.80483 12.7347L4.10149 12.5633C4.662 13.0421 5.30615 13.4132 6.00149 13.658V14C6.00149 14.5304 6.21221 15.0391 6.58728 15.4142C6.96235 15.7893 7.47106 16 8.00149 16C8.53193 16 9.04064 15.7893 9.41571 15.4142C9.79078 15.0391 10.0015 14.5304 10.0015 14V13.658C10.6966 13.4123 11.3403 13.0403 11.9002 12.5607L12.1982 12.7327C12.6579 12.9979 13.2041 13.0696 13.7167 12.9321C14.2293 12.7946 14.6663 12.459 14.9315 11.9993C15.1967 11.5396 15.2684 10.9934 15.1309 10.4808C14.9934 9.96819 14.6579 9.53122 14.1982 9.266L14.1975 9.26667ZM12.4988 6.74933C12.7246 7.56738 12.7246 8.43129 12.4988 9.24933C12.4594 9.39171 12.4684 9.54316 12.5244 9.67987C12.5804 9.81659 12.6802 9.93084 12.8082 10.0047L13.5308 10.422C13.684 10.5104 13.7958 10.6561 13.8417 10.8269C13.8875 10.9977 13.8636 11.1798 13.7752 11.333C13.6868 11.4862 13.5411 11.598 13.3703 11.6438C13.1994 11.6897 13.0174 11.6657 12.8642 11.5773L12.1402 11.1587C12.0121 11.0845 11.863 11.055 11.7163 11.075C11.5697 11.0949 11.4338 11.163 11.3302 11.2687C10.7368 11.8744 9.98921 12.3067 9.16816 12.5187C9.02485 12.5555 8.89787 12.639 8.80722 12.7559C8.71658 12.8729 8.66742 13.0167 8.66749 13.1647V14C8.66749 14.1768 8.59726 14.3464 8.47223 14.4714C8.34721 14.5964 8.17764 14.6667 8.00083 14.6667C7.82402 14.6667 7.65445 14.5964 7.52942 14.4714C7.4044 14.3464 7.33416 14.1768 7.33416 14V13.1653C7.33423 13.0174 7.28508 12.8736 7.19443 12.7566C7.10379 12.6397 6.9768 12.5562 6.83349 12.5193C6.01239 12.3065 5.26505 11.8733 4.67216 11.2667C4.56851 11.161 4.43265 11.0929 4.286 11.073C4.13934 11.053 3.99023 11.0825 3.86216 11.1567L3.13949 11.5747C3.06365 11.6191 2.97975 11.6482 2.89264 11.6601C2.80553 11.672 2.71693 11.6665 2.63193 11.6441C2.54693 11.6216 2.46721 11.5825 2.39737 11.5291C2.32753 11.4757 2.26895 11.409 2.22498 11.3329C2.18102 11.2567 2.15256 11.1727 2.14122 11.0855C2.12989 10.9983 2.13592 10.9097 2.15895 10.8249C2.18199 10.74 2.22158 10.6606 2.27545 10.5911C2.32932 10.5216 2.3964 10.4635 2.47283 10.42L3.19549 10.0027C3.32346 9.92884 3.42328 9.81459 3.47927 9.67787C3.53526 9.54116 3.54425 9.38972 3.50483 9.24733C3.27907 8.42929 3.27907 7.56538 3.50483 6.74733C3.54354 6.60525 3.53412 6.45436 3.47804 6.31819C3.42196 6.18203 3.32237 6.06827 3.19483 5.99467L2.47216 5.57733C2.31895 5.48893 2.20714 5.34328 2.16132 5.17244C2.1155 5.00159 2.13942 4.81954 2.22783 4.66633C2.31623 4.51313 2.46188 4.40131 2.63272 4.35549C2.80357 4.30967 2.98562 4.33359 3.13883 4.422L3.86283 4.84067C3.99055 4.91501 4.13935 4.94481 4.28585 4.92538C4.43234 4.90595 4.56823 4.8384 4.67216 4.73333C5.26555 4.12756 6.01311 3.69535 6.83416 3.48333C6.97791 3.44638 7.10523 3.3625 7.19592 3.245C7.28661 3.1275 7.33549 2.98309 7.33483 2.83467V2C7.33483 1.82319 7.40507 1.65362 7.53009 1.5286C7.65511 1.40357 7.82468 1.33333 8.00149 1.33333C8.1783 1.33333 8.34787 1.40357 8.4729 1.5286C8.59792 1.65362 8.66816 1.82319 8.66816 2V2.83467C8.66809 2.98264 8.71725 3.12643 8.80789 3.24339C8.89854 3.36035 9.02552 3.44382 9.16883 3.48067C9.99017 3.69343 10.7378 4.12659 11.3308 4.73333C11.4345 4.83898 11.5703 4.90713 11.717 4.92704C11.8636 4.94696 12.0128 4.91751 12.1408 4.84333L12.8635 4.42533C12.9393 4.38087 13.0232 4.35185 13.1103 4.33993C13.1975 4.32802 13.2861 4.33346 13.3711 4.35593C13.4561 4.37841 13.5358 4.41747 13.6056 4.47088C13.6755 4.52428 13.734 4.59097 13.778 4.66712C13.822 4.74326 13.8504 4.82734 13.8618 4.91453C13.8731 5.00171 13.8671 5.09028 13.844 5.17513C13.821 5.25998 13.7814 5.33943 13.7275 5.40892C13.6737 5.4784 13.6066 5.53655 13.5302 5.58L12.8075 5.99733C12.6802 6.07114 12.5809 6.18498 12.5251 6.32113C12.4692 6.45727 12.46 6.60807 12.4988 6.75V6.74933Z" fill="#42464F"/>
</svg>