<?xml version="1.0" encoding="utf-8"?>
<svg fill="none" viewBox="0 0 16 16" xmlns="http://www.w3.org/2000/svg">
<path d="M15.3869 10.2203L10.0002 1.71366C9.54689 1.06033 8.79356 0.666992 8.00023 0.666992C7.20689 0.666992 6.45356 1.05366 5.98023 1.73366L0.620227 10.207C-0.0597729 11.1803 -0.18644 12.347 0.286894 13.247C0.75356 14.147 1.73356 14.6603 2.96023 14.6603H13.0402C14.2736 14.6603 15.2469 14.147 15.7136 13.247C16.1802 12.347 16.0536 11.187 15.3869 10.2203ZM7.33356 4.66699C7.33356 4.30033 7.63356 4.00033 8.00023 4.00033C8.36689 4.00033 8.66689 4.30033 8.66689 4.66699V8.66699C8.66689 9.03366 8.36689 9.33366 8.00023 9.33366C7.63356 9.33366 7.33356 9.03366 7.33356 8.66699V4.66699ZM8.00023 12.667C7.44689 12.667 7.00023 12.2203 7.00023 11.667C7.00023 11.1137 7.44689 10.667 8.00023 10.667C8.55356 10.667 9.00023 11.1137 9.00023 11.667C9.00023 12.2203 8.55356 12.667 8.00023 12.667Z" fill="currentColor"/>
</svg>